<?xml version="1.0" encoding="utf-8"?>
<!-- Generator: Adobe Illustrator 27.5.0, SVG Export Plug-In . SVG Version: 6.00 Build 0)  -->
<svg version="1.1" xmlns="http://www.w3.org/2000/svg" xmlns:xlink="http://www.w3.org/1999/xlink" x="0px" y="0px"
	 viewBox="0 0 500 500" style="enable-background:new 0 0 500 500;" xml:space="preserve">
<g id="Background_Simple">
	<g>
		<path style="fill:#92E3A9;" d="M470.595,130.902c-7.632-19.102-18.902-36.241-37.076-50.68
			c-43.019-34.179-102.576-32.198-153.53-20.666C229.152,71.06,196,107.412,171.962,151.611
			c-13.283,24.42-42.853,31.638-68.213,35.974c-36.911,6.31-70.736,14.988-87.799,51.597
			c-14.382,30.857-15.066,69.192-5.544,101.555c10.12,34.397,37.249,58.47,70.932,69.107c28.716,9.068,57.598,6.836,87.162,4.563
			c35.009-2.691,62.99,11.606,95.81,21.21c35.771,10.467,72.98,16.881,110.342,14.18c58.101-4.2,83.851-49.147,98.768-100.009
			C493.53,281.218,497.54,198.338,470.595,130.902z"/>
		<path style="opacity:0.7;fill:#FFFFFF;" d="M470.595,130.902c-7.632-19.102-18.902-36.241-37.076-50.68
			c-43.019-34.179-102.576-32.198-153.53-20.666C229.152,71.06,196,107.412,171.962,151.611
			c-13.283,24.42-42.853,31.638-68.213,35.974c-36.911,6.31-70.736,14.988-87.799,51.597
			c-14.382,30.857-15.066,69.192-5.544,101.555c10.12,34.397,37.249,58.47,70.932,69.107c28.716,9.068,57.598,6.836,87.162,4.563
			c35.009-2.691,62.99,11.606,95.81,21.21c35.771,10.467,72.98,16.881,110.342,14.18c58.101-4.2,83.851-49.147,98.768-100.009
			C493.53,281.218,497.54,198.338,470.595,130.902z"/>
	</g>
</g>
<g id="Door">
	<g>
		<rect x="260.316" y="94.671" style="fill:#FFFFFF;stroke:#263238;stroke-miterlimit:10;" width="167.299" height="351.014"/>
		<polygon style="fill:#263238;" points="269.659,94.671 269.659,275.592 427.385,392.779 427.385,408.965 409.81,395.926 
			409.81,445.501 396.81,445.501 396.81,386.28 340.908,344.804 340.908,445.501 327.908,445.501 327.908,335.222 327.993,335.222 
			269.659,291.798 269.659,445.685 427.615,445.685 427.615,94.671 		"/>
	</g>
</g>
<g id="Arrows">
	<polygon style="fill:none;stroke:#263238;stroke-miterlimit:10;" points="463.444,130.16 463.444,101.615 451.489,101.615 
		451.489,130.257 436.39,118.604 436.39,132.446 456.401,151.889 457.408,152.863 458.408,151.889 478.425,132.446 478.425,118.604 
			"/>
	<polygon style="fill:none;stroke:#263238;stroke-miterlimit:10;" points="451.099,210.52 451.099,195 444.599,195 444.599,210.573 
		436.39,204.237 436.39,211.762 447.27,222.334 447.817,222.863 448.361,222.334 459.244,211.762 459.244,204.237 	"/>
	<polygon style="fill:none;stroke:#263238;stroke-miterlimit:10;" points="147.884,112.044 119.34,112.044 119.34,123.998 
		147.982,123.998 136.329,139.097 150.171,139.097 169.614,119.086 170.588,118.08 169.614,117.079 150.171,97.062 136.329,97.062 	
		"/>
	<polygon style="fill:none;stroke:#263238;stroke-miterlimit:10;" points="69.404,103.394 57.34,103.394 57.34,108.447 
		69.446,108.447 64.52,114.828 70.37,114.828 78.588,106.371 79,105.945 78.588,105.522 70.37,97.062 64.52,97.062 	"/>
	<polygon style="fill:none;stroke:#263238;stroke-miterlimit:10;" points="77.816,375.023 65.752,375.023 65.752,380.076 
		77.857,380.076 72.932,386.458 78.782,386.458 87,378 87.412,377.574 87,377.152 78.782,368.691 72.932,368.691 	"/>
	<polygon style="fill:none;stroke:#263238;stroke-miterlimit:10;" points="221.884,410.043 193.34,410.043 193.34,421.998 
		221.982,421.998 210.329,437.097 224.171,437.097 243.614,417.086 244.588,416.08 243.614,415.079 224.171,395.062 
		210.329,395.062 	"/>
</g>
<g id="Sign">
	<g>
		<path style="fill:#263238;" d="M381.788,120.022h-76.053c-3.769,0-6.825-3.056-6.825-6.825V75.17c0-3.769,3.056-6.825,6.825-6.825
			h76.053c3.77,0,6.825,3.056,6.825,6.825v38.027C388.614,116.966,385.558,120.022,381.788,120.022z"/>
		<g>
			<path style="fill:#92E3A9;" d="M318.571,90.706h7.588v5.025h-7.588v10.302h9.548v5.025h-15.076V75.882h15.076v5.025h-9.548
				V90.706z"/>
			<path style="fill:#92E3A9;" d="M349.978,75.882L344.2,92.967l6.181,18.09h-5.829l-4.523-13.92l-4.573,13.92h-5.176l6.181-18.09
				l-5.779-17.085h5.729l4.17,12.965l4.272-12.965H349.978z"/>
			<path style="fill:#92E3A9;" d="M353.144,75.882h5.527v35.176h-5.527V75.882z"/>
			<path style="fill:#92E3A9;" d="M361.083,75.882h17.086v5.025h-5.779v30.151h-5.527V80.907h-5.779V75.882z"/>
		</g>
	</g>
</g>
<g id="Character">
	<g>
		<g>
			<path style="fill:#FFFFFF;stroke:#263238;stroke-miterlimit:10;" d="M136.916,429.608c0,0,2.75,7.945,4.889,10.084
				c2.139,2.139,5.806,5.195,5.806,5.195s0,1.222-1.833,1.833c-1.833,0.611-11-0.611-12.834-1.222
				c-1.833-0.611-5.5-5.195-8.861-8.25c-3.361-3.056-7.334-5.806-6.111-9.473c1.222-3.667,6.722-8.556,6.722-8.556L136.916,429.608z
				"/>
			<path style="fill:#FFFFFF;stroke:#263238;stroke-miterlimit:10;" d="M145.777,446.72c0.599-0.2,0.988-0.465,1.26-0.731
				c-8.601,0.387-15.976-5.369-19.141-9.397c-2.909-3.703-7.48-8.439-9.27-10.264c-0.274,0.494-0.5,0.98-0.655,1.447
				c-1.222,3.667,2.75,6.417,6.111,9.473c3.361,3.056,7.028,7.639,8.861,8.25C134.777,446.109,143.944,447.331,145.777,446.72z"/>
		</g>
		<path style="fill:#263238;stroke:#263238;stroke-miterlimit:10;" d="M168.991,274.357c0,0-4.278,12.834-3.667,21.39
			c0.611,8.556,8.861,22.917,8.861,22.917l-4.879,55.942c0,0-17.723,6.723-24.14,14.973c-6.417,8.25-22.001,30.251-22.001,30.251
			s0.917,3.056,3.361,5.195c2.445,2.139,9.473,4.583,10.389,4.583s2.445-5.5,2.445-5.5s8.556-10.695,10.695-11
			c2.139-0.306,35.14-30.862,38.196-33.001c3.056-2.139,7.945-4.889,8.25-8.861c0.306-3.972,13.435-55.331,14.352-58.387
			c0.917-3.056,6.111-30.557,6.111-30.557L168.991,274.357z"/>
		<g>
			<path style="fill:#FFFFFF;stroke:#263238;stroke-miterlimit:10;" d="M335.219,186.309c0,0,13.363-5.796,17.549-8.372
				c4.186-2.576,6.44-5.957,7.728-4.669c1.288,1.288-0.644,5.474-1.932,6.601s-8.05,4.186-9.177,4.991
				c-1.127,0.805,0.644,0.322,6.762-0.322c6.118-0.644,7.889-2.576,8.05-0.483c0.161,2.093-2.576,4.347-4.83,5.152
				c-2.254,0.805-11.914,1.288-11.914,1.288s11.753,3.703,12.236,3.864s0.805,1.61-1.449,2.576
				c-2.254,0.966-6.923-0.322-8.855-1.288c-1.932-0.966-3.059-1.288-3.059-1.288s2.576,4.025,3.703,4.83
				c1.127,0.805,0.483,1.932-1.288,1.932c-1.771,0-6.762-5.152-6.762-5.152s-2.898,2.093-4.83,2.093
				c-1.932,0-4.669-1.288-4.669-1.288l-2.415,0.805l-4.83-8.05L335.219,186.309z"/>
			<path style="fill:#FFFFFF;stroke:#263238;stroke-miterlimit:10;" d="M326.847,189.529c0,0,13.041-6.279,16.261-8.05
				c3.22-1.771,5.313-6.118,6.44-4.347c1.127,1.771,1.288,3.381-0.322,5.313c-1.61,1.932-6.44,4.347-6.923,4.508
				s-2.576,3.542-4.347,4.991c-1.771,1.449-4.669,1.127-4.669,1.127"/>
		</g>
		<polygon style="fill:#FFFFFF;stroke:#263238;stroke-miterlimit:10;" points="316.865,192.105 327.974,188.563 330.872,197.739 
			321.051,202.408 		"/>
		<g>
			<path style="fill:#263238;stroke:#263238;stroke-miterlimit:10;" d="M66.307,324.548l-34.897-58.13
				c-1.104-1.838-0.508-4.223,1.33-5.327l36.962-22.189c1.838-1.104,4.223-0.508,5.327,1.33l34.897,58.13
				c1.104,1.838,0.508,4.223-1.33,5.327l-36.962,22.189C69.796,326.983,67.411,326.387,66.307,324.548z"/>
			<path style="fill:#263238;stroke:#263238;stroke-miterlimit:10;" d="M92.731,255.183l-8.66,5.199l11.36,18.923l8.66-5.199
				c1.949-1.17,2.58-3.698,1.41-5.646l-7.124-11.867C97.208,254.645,94.68,254.014,92.731,255.183z M95.816,275.584l-8.279-13.792
				l4.811-2.888c1.948-1.17,4.476-0.538,5.646,1.41l4.043,6.735c1.17,1.948,0.538,4.476-1.41,5.646L95.816,275.584z"/>
		</g>
		<g>
			<path style="fill:#FFFFFF;stroke:#263238;stroke-miterlimit:10;" d="M112.317,249.974c0,0-2.923,4.141-1.705,7.065
				c1.218,2.923,1.949,8.77,0.731,9.744c-1.218,0.974-3.167,3.654-3.411,5.116c-0.244,1.462-2.436,1.705-2.436-0.244
				c0-1.949,0.487-5.116,0.487-5.116l-5.359,3.654c0,0-3.167,0-2.923-1.705c0.244-1.705,0.244-3.167,0.244-3.167
				s-1.462-3.41-1.705-4.628c-0.244-1.218-0.974-4.141,0.487-5.603c1.462-1.462,9.744-7.308,9.744-7.308l3.167-2.436
				L112.317,249.974z"/>
			<line style="fill:#FFFFFF;stroke:#263238;stroke-miterlimit:10;" x1="105.983" y1="266.539" x2="108.906" y2="265.077"/>
		</g>
		<polygon style="fill:#FFFFFF;stroke:#263238;stroke-miterlimit:10;" points="114.266,239.498 107.201,245.589 112.317,253.871 
			118.894,248.268 		"/>
		<g>
			<path style="fill:#FFFFFF;stroke:#263238;stroke-miterlimit:10;" d="M215.045,205.413c0,0-25.671-1.975-30.185,0
				c-4.514,1.975-50.496,21.157-59.805,25.953s-13.259,8.181-12.694,10.156c0.564,1.975,3.385,8.745,6.77,8.745
				s27.082-10.72,32.724-12.412c5.642-1.693,31.031-5.924,31.031-5.924s-14.387,39.212-14.951,42.597s-1.128,4.796,4.796,8.745
				s27.364,8.181,32.723,7.053c5.36-1.128,12.13-5.924,12.412-7.053c0.282-1.128,2.821-9.591,3.385-10.72
				c0.564-1.128,24.543-35.262,24.543-36.109s36.673-13.823,47.957-18.901c11.284-5.078,26.235-11.566,27.646-13.259
				c1.41-1.693,2.539-3.949,1.41-6.206c-1.128-2.257-3.103-7.053-7.052-6.77c-3.949,0.282-18.054,8.463-22.85,9.873
				c-4.796,1.411-49.085,6.77-49.932,6.77c-0.846,0-12.976-1.975-15.233-1.975S215.045,205.413,215.045,205.413z"/>
			<g>
				<path style="fill:#263238;" d="M223.265,220.383l1.921,11.047c0,0-8.165,5.764-17.291-2.402
					c-9.126-8.165-12.488-21.133-29.299-22.094c-16.811-0.961-31.7,1.921-42.267,0.961l-10.567,9.606l12.968,10.087
					c0,0,31.22-9.126,41.787-10.087c10.567-0.961,12.008,9.606,23.535,17.771c11.527,8.165,23.535-0.48,23.535-0.48l10.087-11.047
					l-0.961-11.047l-8.646-3.362L223.265,220.383z"/>
				<g>
					<path style="fill:#92E3A9;" d="M201.298,221.582l-4.957,6.596c1.628,1.854,3.486,3.779,5.777,5.629l4.501-5.99
						C204.674,225.876,202.971,223.736,201.298,221.582z"/>
					<path style="fill:#92E3A9;" d="M236.714,212.698l-5.189-2.018l-8.078,10.749l1.739,10.001c0,0-4.421,3.113-10.39,1.511
						l-4.038,5.373c3.862,0.885,7.491,0.377,10.385-0.503l15.913-21.176L236.714,212.698z"/>
					<path style="fill:#92E3A9;" d="M145.402,207.998l-11.752,15.638l5.081,3.952c0,0,0.93-0.271,2.497-0.719l14.657-19.504
						C152.173,207.612,148.664,207.865,145.402,207.998z"/>
					<path style="fill:#92E3A9;" d="M194.927,214.055c-1.87-1.828-3.969-3.444-6.491-4.679l-6.07,8.077
						c3.124,0.133,5.392,1.418,7.483,3.358L194.927,214.055z"/>
					<path style="fill:#92E3A9;" d="M178.254,206.92c-3.385-0.183-6.687-0.211-9.895-0.149l-11.984,15.947
						c4.061-1.063,8.338-2.136,12.29-3.038L178.254,206.92z"/>
				</g>
			</g>
			<line style="fill:none;stroke:#263238;stroke-miterlimit:10;" x1="245.794" y1="236.444" x2="260.181" y2="218.39"/>
			<line style="fill:none;stroke:#263238;stroke-miterlimit:10;" x1="250.871" y1="229.956" x2="266.951" y2="216.415"/>
			<polyline style="fill:none;stroke:#263238;stroke-miterlimit:10;" points="190.502,231.084 182.886,231.93 189.374,235.033 			
				"/>
			<path style="fill:none;stroke:#263238;stroke-miterlimit:10;" d="M179.783,285.529c0,0,22.568-4.232,28.21-6.488"/>
			<path style="fill:none;stroke:#263238;stroke-miterlimit:10;" d="M193.605,278.195c0,0-13.541,5.078-18.618,5.36"/>
		</g>
		<path style="fill:#FFFFFF;stroke:#263238;stroke-miterlimit:10;" d="M220.92,199.449l-10.085,6.008l7.296,22.316l9.656-10.729
			l2.36,7.725l4.935-7.51l8.369,3.862c0,0-8.154-18.239-8.798-19.097C234.01,201.166,226.714,196.016,220.92,199.449z"/>
		<path style="fill:#FFFFFF;stroke:#263238;stroke-miterlimit:10;" d="M219.418,198.591c0,0-0.215,3.433,0.644,6.867
			c0.858,3.433,7.725,11.587,7.725,11.587l2.36,7.725c0,0,3.862-9.227,4.292-10.3c0.429-1.073,4.506-22.96,4.506-22.96
			L219.418,198.591z"/>
		<polyline style="fill:#263238;stroke:#263238;stroke-miterlimit:10;" points="223.502,205.615 236.405,204.957 237.903,196.846 
			223.502,205.615 		"/>
		<g>
			<path style="fill:#263238;stroke:#263238;stroke-miterlimit:10;" d="M215.509,156.222c0,0-4.714-5.739,0.82-7.788
				c5.534-2.05,19.706-1.043,26.06,2.237c6.354,3.279,8.597,9.893,8.597,16.656c0,6.763-3.913,13.08-4.323,13.695
				c-0.41,0.615-4.509,2.049-6.763,1.845c-2.254-0.205-0.615-6.354-2.049-8.813c-1.435-2.459-5.739-3.689-5.739-6.354
				c0-2.664,0.615-6.559-2.049-6.763c-2.664-0.205-9.428,0.615-10.043,1.23c-0.615,0.615-0.615,4.304-1.435,6.558
				c-0.82,2.254-1.435,6.149-2.664,4.714c-1.23-1.435-3.894-6.354-3.074-10.247c0.82-3.894,2.664-5.739,2.664-5.739V156.222z"/>
			<g>
				<path style="fill:#FFFFFF;stroke:#263238;stroke-miterlimit:10;" d="M217.148,159.296c0,0-2.869,12.707-2.664,14.961
					c0.205,2.255,1.025,4.304,1.025,5.534c0,1.23-1.23,5.124-1.23,7.378c0,2.254,4.714,16.601,4.714,16.601s2.459,1.845,4.509,1.845
					s16.806-9.018,17.421-10.248c0.615-1.23,1.025-4.509,1.025-4.509s5.739-2.869,7.173-6.354c1.435-3.484-1.435-6.354-3.279-6.354
					c-1.845,0-3.894,2.869-3.894,2.869l-1.844-0.82c0,0,1.844-6.968,0.82-8.403c-1.025-1.435-5.739-2.049-5.124-3.894
					c0.615-1.844,3.689-3.074,3.484-5.944c-0.205-2.869-6.968-4.919-12.092-4.714c-5.124,0.205-4.714,2.049-6.558,2.254
					C218.788,159.706,217.148,159.296,217.148,159.296z"/>
				<path style="fill:none;stroke:#263238;stroke-miterlimit:10;" d="M222.067,176.717c0,0-0.82,5.534-1.025,6.559
					c-0.205,1.025-3.894,4.714-2.869,5.739c1.025,1.025,4.714,1.23,4.714,1.23"/>
				<line style="fill:none;stroke:#263238;stroke-miterlimit:10;" x1="220.632" y1="193.933" x2="224.936" y2="194.138"/>
				<ellipse style="fill:#263238;" cx="227.908" cy="179.279" rx="1.127" ry="1.742"/>
				<path style="fill:#263238;" d="M219.505,178.357c0,0.962-0.505,1.742-1.127,1.742c-0.622,0-1.127-0.78-1.127-1.742
					c0-0.962,0.505-1.742,1.127-1.742C219,176.615,219.505,177.395,219.505,178.357z"/>
				<path style="fill:none;stroke:#263238;stroke-miterlimit:10;" d="M225.961,173.438c0,0,4.099-2.869,6.763,1.435"/>
				<path style="fill:none;stroke:#263238;stroke-miterlimit:10;" d="M221.042,174.258c0,0-2.254-2.254-5.329,0"/>
			</g>
		</g>
		<g>
			<path style="fill:#FFFFFF;stroke:#263238;stroke-miterlimit:10;" d="M147.567,341.917c0,0-7.811-5.107-9.313-5.107
				c-1.502,0-6.309,3.605-6.309,5.407c0,1.802-6.008,13.218-7.51,17.724c-1.502,4.506-2.403,8.111,0.3,9.613
				c2.704,1.502,6.609-3.605,9.012-5.407c2.403-1.802,11.716-9.012,11.716-9.012l4.806-0.601l-1.502-12.316L147.567,341.917z"/>
			<path style="fill:#FFFFFF;stroke:#263238;stroke-miterlimit:10;" d="M138.254,336.81c-1.502,0-6.309,3.605-6.309,5.407
				c0,1.802-6.008,13.218-7.51,17.724c-1.502,4.506-2.403,8.111,0.3,9.613c0.345,0.192,0.71,0.273,1.089,0.27
				c0.007-0.438,0.026-0.919,0.064-1.46c0.335-4.682,2.676-10.034,7.692-20.401c2.605-5.383,4.752-8.68,6.221-10.618
				C139.112,337.019,138.554,336.81,138.254,336.81z"/>
		</g>
		<path style="fill:#263238;stroke:#263238;stroke-miterlimit:10;" d="M210.952,329.6c0,0-14.119-0.601-24.633,3.905
			c-10.514,4.506-38.752,8.411-38.752,8.411s-0.901,9.313,0.601,11.716s1.502,2.403,1.502,2.403
			c24.835-3.738,15.364-3.731,43.859-4.806c15.921-0.601,43.258-4.807,50.468-7.21c7.21-2.403,9.313-4.506,9.913-6.909
			s-8.411-3.305-14.119-5.107"/>
		<path style="fill:#263238;stroke:#263238;stroke-miterlimit:10;" d="M180.611,288.145c0,0,31.843,6.609,50.768,16.823
			c18.925,10.214,25.534,20.427,25.534,25.835c0,5.407-4.206,9.012-8.712,10.815c-4.506,1.802-64.286-14.419-74.2-24.333
			c-9.913-9.913-12.617-27.938-7.811-30.341c4.807-2.403,6.008-2.704,6.008-2.704"/>
	</g>
</g>
<g id="Floor">
	<line style="fill:#FFFFFF;stroke:#263238;stroke-miterlimit:10;" x1="468.012" y1="445.685" x2="19.494" y2="445.685"/>
</g>
</svg>
